<svg width="250" height="100" viewBox="0 0 184 46" fill="none" xmlns="http://www.w3.org/2000/svg">
<g clip-path="url(#clip0_209_26)">
<path d="M37.1142 45.1605H61.707C62.4885 45.1606 63.2555 44.9567 63.932 44.5695C64.6085 44.1821 65.1705 43.6251 65.5605 42.9542C65.951 42.2834 66.1565 41.5225 66.156 40.7479C66.156 39.9734 65.9495 39.2126 65.559 38.5422L49.0428 10.1772C48.6524 9.50656 48.0909 8.94961 47.4145 8.56239C46.7382 8.17512 45.971 7.97129 45.19 7.97129C44.409 7.97129 43.6418 8.17512 42.9655 8.56239C42.2892 8.94961 41.7276 9.50656 41.3372 10.1772L37.1142 17.4348L28.8574 3.24284C28.4667 2.57221 27.9049 2.01534 27.2283 1.62818C26.5518 1.24102 25.7845 1.0372 25.0034 1.0372C24.2223 1.0372 23.455 1.24102 22.7785 1.62818C22.1019 2.01534 21.5401 2.57221 21.1495 3.24284L0.59735 38.5422C0.206365 39.2126 0.000340289 39.9734 4.21178e-07 40.7479C-0.000339446 41.5225 0.205018 42.2834 0.595415 42.9542C0.985815 43.6251 1.54749 44.1821 2.22394 44.5695C2.9004 44.9567 3.66779 45.1606 4.44893 45.1605H19.8864C26.0028 45.1605 30.5135 42.4965 33.6173 37.2993L41.1527 24.3597L45.1888 17.4348L57.302 38.2356H41.1527L37.1142 45.1605ZM19.6347 38.2285L8.86135 38.2261L25.0106 10.4933L33.0685 24.3597L27.6734 33.6277C25.6122 36.9998 23.2705 38.2285 19.6347 38.2285Z" fill="#00DC82"/>
<path d="M83.721 44.7458V28.2308C83.721 23.5048 83.2395 18.7787 83.2395 18.7787C83.2395 18.7787 85.0685 23.0893 87.3795 27.1402L97.2475 44.7458H104.998V8.39188H97.729V24.907C97.729 29.633 98.2105 34.4109 98.2105 34.4109C98.2105 34.4109 96.381 30.0485 94.1185 25.9976L84.202 8.39188H76.5V44.7458H83.721Z" fill="white"/>
<path d="M127.899 18.571V32.9048C127.899 36.2286 125.829 38.7215 122.892 38.7215C120.148 38.7215 118.223 36.4364 118.223 33.2684V18.571H111.531V34.8783C111.531 40.8508 115.094 45.1613 120.533 45.1613C123.855 45.1613 126.551 43.6033 127.899 41.1105V44.7458H134.638V18.571H127.899Z" fill="white"/>
<path d="M154.236 31.1391L162.372 18.571H155.007L150.578 25.4783L146.149 18.571H138.832L146.967 31.0872L138.206 44.7458H145.379L150.626 36.696L155.825 44.7458H162.949L154.236 31.1391Z" fill="white"/>
<path d="M169.895 18.571H165.226V24.5954H169.895V35.2419C169.895 41.3182 173.505 44.7458 179.09 44.7458H183.085V38.6695H180.004C177.838 38.6695 176.586 37.4751 176.586 34.9303V24.5954H183.085V18.571H176.586V10.8328H169.895V18.571Z" fill="white"/>
</g>
<defs>
<clipPath id="clip0_209_26">
<rect width="184" height="46" fill="white"/>
</clipPath>
</defs>
</svg>
